<svg xmlns="http://www.w3.org/2000/svg" width="17" height="15.618" viewBox="0 0 17 15.618">
    <defs>
        <style>
            .cls-2{fill:#fae300}
        </style>
    </defs>
    <g id="icon_cstalk" transform="translate(-237.549 109.471)">
        <path id="패스_146" fill="#391b1b" d="M246.049-109.471c-4.695 0-8.5 3.008-8.5 6.72a6.565 6.565 0 0 0 4.032 5.716c-.178.664-.643 2.405-.737 2.778-.115.462.17.456.356.331l3.271-2.222a10.733 10.733 0 0 0 1.578.116c4.694 0 8.5-3.009 8.5-6.719s-3.806-6.72-8.5-6.72"/>
        <path id="패스_147" d="M242.628-104.731h-2.485a.423.423 0 0 0-.423.423.423.423 0 0 0 .423.423h.808v2.978a.414.414 0 0 0 .121.291.411.411 0 0 0 .291.121h.09a.412.412 0 0 0 .29-.12.414.414 0 0 0 .122-.292v-2.978h.763a.423.423 0 0 0 .424-.423.424.424 0 0 0-.424-.423z" class="cls-2"/>
        <path id="패스_148" d="M248.6-101.29h-1.156v-3.041a.458.458 0 0 0-.458-.459.458.458 0 0 0-.459.459v3.278a.441.441 0 0 0 .007.073.451.451 0 0 0-.007.073.383.383 0 0 0 .384.384h1.689a.383.383 0 0 0 .384-.384.384.384 0 0 0-.384-.383z" class="cls-2"/>
        <path id="패스_149" d="M252.3-101.151l-1.288-1.691 1.163-1.165a.4.4 0 0 0 0-.57.4.4 0 0 0-.571 0l-1.44 1.44v-1.194a.459.459 0 0 0-.459-.459.459.459 0 0 0-.459.459v3.378a.459.459 0 0 0 .459.459.459.459 0 0 0 .459-.459V-102l.261-.262 1.219 1.6a.409.409 0 0 0 .574.082.411.411 0 0 0 .082-.571z" class="cls-2"/>
        <path id="패스_150" d="M246.186-101.041l-1.239-3.389a.609.609 0 0 0-.581-.357.592.592 0 0 0-.6.426c-.008.018-.017.036-.024.056l-1.218 3.267a.411.411 0 0 0 .251.524.413.413 0 0 0 .525-.251l.21-.6h1.7l.21.6a.411.411 0 0 0 .524.251.411.411 0 0 0 .242-.527zm-2.413-1.1l.57-1.625h.018l.57 1.624z" class="cls-2"/>
    </g>
</svg>
