<svg xmlns="http://www.w3.org/2000/svg" width="34" height="11.206" viewBox="0 0 34 11.206">
    <defs>
        <style>
            .cls-1{fill:#222}
        </style>
    </defs>
    <g id="img_about_beat" transform="translate(-403.857 -292.397)">
        <path id="패스_179" d="M429.533 296.592a3.576 3.576 0 0 0-2.669-1.118 3.849 3.849 0 0 0-2.825 1.188 3.934 3.934 0 0 0-1.172 2.856 4.011 4.011 0 0 0 1.161 2.893 3.929 3.929 0 0 0 4.517.806 4.045 4.045 0 0 0 .988-.7v1.083h1.389v-7.94h-1.389zm-5.249 2.957a2.739 2.739 0 0 1 .361-1.358 2.592 2.592 0 0 1 .968-.994 2.619 2.619 0 0 1 1.328-.353 2.514 2.514 0 0 1 1.885.78 2.686 2.686 0 0 1 .767 1.951 2.8 2.8 0 0 1-.341 1.379 2.518 2.518 0 0 1-.973.961 2.634 2.634 0 0 1-2.655 0 2.669 2.669 0 0 1-.976-1.007 2.747 2.747 0 0 1-.364-1.359z" class="cls-1"/>
        <path id="패스_180" d="M435.437 294.121h-1.4v1.54h-2.493v1.276h2.493v6.663h1.4v-6.664h2.42v-1.276h-2.42z" class="cls-1"/>
        <path id="패스_181" d="M412.389 302.074h.371l-.234.768h.888l.426-.9.023-1.345h-1.474z" class="cls-1"/>
        <path id="사각형_163" d="M0 0H1.473V1.478H0z" class="cls-1" transform="translate(412.388 296.721)"/>
        <path id="패스_182" d="M407.915 295.474a3.576 3.576 0 0 0-2.668 1.118v-4.2h-1.39v11.2h1.39v-1.081a4.048 4.048 0 0 0 .987.7 3.929 3.929 0 0 0 4.517-.806 4 4 0 0 0 1.161-2.893 3.94 3.94 0 0 0-1.172-2.856 3.847 3.847 0 0 0-2.825-1.182zm2.581 4.075a2.744 2.744 0 0 1-.365 1.358 2.661 2.661 0 0 1-.976 1.007 2.634 2.634 0 0 1-2.655 0 2.5 2.5 0 0 1-.972-.961 2.794 2.794 0 0 1-.341-1.379 2.688 2.688 0 0 1 .766-1.951 2.516 2.516 0 0 1 1.885-.78 2.591 2.591 0 0 1 2.3 1.347 2.733 2.733 0 0 1 .362 1.359z" class="cls-1"/>
        <path id="패스_183" d="M422.475 299.61a4.194 4.194 0 0 0-.854-2.634 3.835 3.835 0 0 0-3.16-1.5 3.719 3.719 0 0 0-3.073 1.469 4.141 4.141 0 0 0-.9 2.616 4.189 4.189 0 0 0 1.062 2.794 3.721 3.721 0 0 0 2.966 1.25 4.261 4.261 0 0 0 1.524-.26 3.813 3.813 0 0 0 1.221-.759 4.567 4.567 0 0 0 .948-1.3l.114-.22h-1.586l-.02.028a3.11 3.11 0 0 1-.456.53 2.613 2.613 0 0 1-.823.471 2.9 2.9 0 0 1-1 .18 2.343 2.343 0 0 1-1.771-.742 2.684 2.684 0 0 1-.734-1.688h6.546zm-1.573-1.041H416.1a2.654 2.654 0 0 1 .687-1.1 2.461 2.461 0 0 1 1.69-.631 2.694 2.694 0 0 1 1.143.253 2.361 2.361 0 0 1 .865.658 2.6 2.6 0 0 1 .415.82z" class="cls-1"/>
    </g>
</svg>
