<svg xmlns="http://www.w3.org/2000/svg" width="165" height="34.411" viewBox="0 0 165 34.411">
    <defs>
        <style>
            .cls-1{fill:#1a1718}
        </style>
    </defs>
    <g id="img_about_beatcorp" transform="translate(-144.184 -54.023)">
        <path id="패스_184" d="M240.247 65.791a5.615 5.615 0 0 1 3.01-.832 5.85 5.85 0 0 1 2.922.867A6.878 6.878 0 0 1 248.5 67.9l2.019-2.479a7.272 7.272 0 0 0-3.01-2.708 9.871 9.871 0 0 0-4.6-1.045 8.553 8.553 0 0 0-4.6 1.274 9.125 9.125 0 0 0-3.241 3.453 10.842 10.842 0 0 0 0 9.861 9.07 9.07 0 0 0 3.241 3.469A8.545 8.545 0 0 0 242.9 81a9.488 9.488 0 0 0 3.115-.513 10.4 10.4 0 0 0 2.656-1.346 7.637 7.637 0 0 0 1.841-1.788l-2.012-2.48a10.628 10.628 0 0 1-2.124 1.911 5.214 5.214 0 0 1-3.081.921 5.5 5.5 0 0 1-2.92-.832 6.315 6.315 0 0 1-2.2-2.266 6.4 6.4 0 0 1-.832-3.275 6.755 6.755 0 0 1 .779-3.275 5.956 5.956 0 0 1 2.125-2.266z" class="cls-1"/>
        <path id="패스_185" d="M265.332 62.9a9.4 9.4 0 0 0-4.8-1.239 9.5 9.5 0 0 0-4.812 1.239 9.134 9.134 0 0 0-3.417 3.417 10.613 10.613 0 0 0 0 10.02 9.127 9.127 0 0 0 3.417 3.417A9.493 9.493 0 0 0 260.535 81a9.4 9.4 0 0 0 4.8-1.239 9.162 9.162 0 0 0 3.4-3.417 10.612 10.612 0 0 0 0-10.02 9.17 9.17 0 0 0-3.403-3.424zm.214 11.7a5.782 5.782 0 0 1-2.073 2.249 5.445 5.445 0 0 1-2.938.814 5.539 5.539 0 0 1-2.956-.814 5.732 5.732 0 0 1-2.089-2.249 6.588 6.588 0 0 1-.726-3.275 6.667 6.667 0 0 1 .726-3.31 5.584 5.584 0 0 1 5.045-3.028 5.539 5.539 0 0 1 2.938.8 5.643 5.643 0 0 1 2.073 2.231 6.688 6.688 0 0 1 .725 3.31 6.609 6.609 0 0 1-.725 3.279z" class="cls-1"/>
        <path id="패스_186" d="M278.221 62.764a6.82 6.82 0 0 0-2.356 2.8v-3.509h-3.681v18.589h3.681V70.376a4.493 4.493 0 0 1 .727-2.567 5.018 5.018 0 0 1 1.823-1.664 4.629 4.629 0 0 1 3.311-.461 4.269 4.269 0 0 1 .867.3l.956-3.965a4.618 4.618 0 0 0-2.018-.354 5.7 5.7 0 0 0-3.31 1.099z" class="cls-1"/>
        <path id="패스_187" d="M298.827 62.958a8.245 8.245 0 0 0-4.443-1.221 7.151 7.151 0 0 0-3.577.92 7.277 7.277 0 0 0-2.443 2.09V62.02h-3.681v26.414h3.681V78.165a8.33 8.33 0 0 0 2.532 1.948 7.578 7.578 0 0 0 3.594.85 7.938 7.938 0 0 0 4.355-1.24 8.742 8.742 0 0 0 3.081-3.416 11.535 11.535 0 0 0 0-9.967 8.59 8.59 0 0 0-3.099-3.382zm0 11.56a5.767 5.767 0 0 1-2 2.249 5.252 5.252 0 0 1-2.939.832 5.335 5.335 0 0 1-2.956-.832 5.7 5.7 0 0 1-2.018-2.249 7.393 7.393 0 0 1 0-6.39 5.6 5.6 0 0 1 2.018-2.213 5.423 5.423 0 0 1 2.956-.815 5.339 5.339 0 0 1 2.939.815 5.67 5.67 0 0 1 2 2.213 7.384 7.384 0 0 1 0 6.39z" class="cls-1"/>
        <path id="패스_188" d="M308.582 76.449a2.259 2.259 0 0 0-1.841-.727 2.141 2.141 0 0 0-1.842.815 3.015 3.015 0 0 0-.6 1.841 2.923 2.923 0 0 0 .6 1.93 2.259 2.259 0 0 0 1.842.725 2.125 2.125 0 0 0 1.841-.831 3.048 3.048 0 0 0 .6-1.824 2.926 2.926 0 0 0-.6-1.929z" class="cls-1"/>
        <path id="패스_189" d="M205.554 64.05a8.538 8.538 0 0 0-6.38-2.672 9.2 9.2 0 0 0-6.751 2.838 9.408 9.408 0 0 0-2.8 6.828 9.583 9.583 0 0 0 2.775 6.914 9.392 9.392 0 0 0 10.8 1.927 9.7 9.7 0 0 0 2.362-1.664V80.8h3.319V61.825h-3.319zm-12.546 7.067a6.547 6.547 0 0 1 .862-3.245 6.2 6.2 0 0 1 5.489-3.22 6.012 6.012 0 0 1 4.505 1.865 6.424 6.424 0 0 1 1.836 4.663 6.674 6.674 0 0 1-.815 3.295 6.01 6.01 0 0 1-2.326 2.3 6.292 6.292 0 0 1-6.344 0 6.369 6.369 0 0 1-2.334-2.407 6.567 6.567 0 0 1-.873-3.251z" class="cls-1"/>
        <path id="패스_190" d="M219.666 58.144h-3.354v3.681h-5.958v3.049h5.958V80.8h3.354V64.875h5.784v-3.05h-5.784z" class="cls-1"/>
        <path id="패스_191" d="M164.576 77.153h.888l-.56 1.836h2.122l1.018-2.155.055-3.215h-3.522z" class="cls-1"/>
        <path id="사각형_164" d="M0 0H3.521V3.533H0z" class="cls-1" transform="translate(164.574 64.357)"/>
        <path id="패스_192" d="M153.883 61.378a8.532 8.532 0 0 0-6.377 2.672V54.023h-3.322V80.8h3.322v-2.579a9.668 9.668 0 0 0 2.359 1.664 9.393 9.393 0 0 0 10.8-1.927 9.58 9.58 0 0 0 2.775-6.914 9.414 9.414 0 0 0-2.8-6.828 9.19 9.19 0 0 0-6.757-2.838zm6.17 9.739a6.567 6.567 0 0 1-.873 3.245 6.273 6.273 0 0 1-8.679 2.411 6.006 6.006 0 0 1-2.324-2.3 6.676 6.676 0 0 1-.815-3.3 6.42 6.42 0 0 1 1.831-4.664 6.013 6.013 0 0 1 4.507-1.865 6.2 6.2 0 0 1 5.488 3.22 6.561 6.561 0 0 1 .865 3.253z" class="cls-1"/>
        <path id="패스_193" d="M188.683 71.263a10.02 10.02 0 0 0-2.041-6.295 9.16 9.16 0 0 0-7.552-3.59 8.886 8.886 0 0 0-7.346 3.512 9.9 9.9 0 0 0-2.154 6.251 10.015 10.015 0 0 0 2.54 6.678 8.89 8.89 0 0 0 7.089 2.988 10.175 10.175 0 0 0 3.643-.621 9.127 9.127 0 0 0 2.918-1.816 10.9 10.9 0 0 0 2.266-3.1l.271-.528h-3.79l-.048.069a7.321 7.321 0 0 1-1.09 1.266 6.272 6.272 0 0 1-1.966 1.125 6.907 6.907 0 0 1-2.4.429 5.6 5.6 0 0 1-4.234-1.772 6.411 6.411 0 0 1-1.752-4.034h15.645zm-3.759-2.488h-11.485a6.345 6.345 0 0 1 1.643-2.632 5.882 5.882 0 0 1 4.038-1.508 6.459 6.459 0 0 1 2.734.6 5.657 5.657 0 0 1 2.067 1.574 6.221 6.221 0 0 1 1.003 1.966z" class="cls-1"/>
    </g>
</svg>
