<svg xmlns="http://www.w3.org/2000/svg" width="43" height="16" viewBox="0 0 43 16">
    <defs>
        <style>
            .cls-2{fill:#1a1818}
        </style>
    </defs>
    <g id="kakaopay" transform="translate(-45 -581)">
        <rect id="사각형_82" width="43" height="16" fill="#ffdf00" rx="8" transform="translate(45 581)"/>
        <path id="패스_117" d="M1.622 5.757a10.664 10.664 0 0 1-.86-.749A2.669 2.669 0 0 1 1.115.974a4.751 4.751 0 0 1 5.854.07 2.616 2.616 0 0 1 .909 2.9A3.178 3.178 0 0 1 6.2 5.809a4.845 4.845 0 0 1-2.516.509.576.576 0 0 0-.319.089c-.587.385-1.166.782-1.75 1.173-.11.073-.219.191-.365.081s-.068-.249-.034-.376c.137-.52.278-1.04.409-1.528" class="cls-2" transform="translate(54 585)"/>
        <path id="패스_118" d="M254.386 16.8v1.536c0 .443.051.385-.395.388-.266 0-.532-.011-.8 0-.186.01-.226-.06-.226-.235.006-1.93 0-3.86 0-5.79v-.982c0-.132.042-.184.176-.179a4.952 4.952 0 0 0 .572 0c.183-.014.3.033.341.228a.957.957 0 0 0 .078.185 5.357 5.357 0 0 1 .516-.34 1.9 1.9 0 0 1 2.777 1.174 4.068 4.068 0 0 1 .035 2.264 2.365 2.365 0 0 1-2.881 1.783l-.2-.034m1.8-2.722c-.03-.252-.041-.485-.087-.711a.905.905 0 0 0-1.112-.817 3.78 3.78 0 0 0-.4.086c-.162.034-.207.131-.2.3.008.866.011 1.733 0 2.6 0 .212.057.3.27.285.095-.008.191.005.286 0a1.152 1.152 0 0 0 1.136-.966c.06-.257.077-.524.112-.77" class="cls-2" transform="translate(-188.616 574.091)"/>
        <path id="패스_119" d="M502.789 11.12l1.285-.344c.141-.037.136.083.158.159q.362 1.237.718 2.475c.125.432.248.865.408 1.3l1.141-3.983 1.351.372a.478.478 0 0 1-.009.113c-.585 1.6-1.16 3.206-1.763 4.8a5.106 5.106 0 0 1-1.12 1.817 4.948 4.948 0 0 1-.517.431.168.168 0 0 1-.158.012c-.27-.236-.533-.481-.794-.721.251-.277.5-.522.713-.791.456-.57.444-.573.19-1.257q-.786-2.119-1.562-4.242c-.014-.037-.022-.076-.042-.147" class="cls-2" transform="translate(-428.215 574.707)"/>
        <path id="패스_120" d="M387.318 16.756c-.176.1-.338.2-.505.285a2.2 2.2 0 0 1-1.04.263 1.461 1.461 0 0 1-1.568-1.5 1.592 1.592 0 0 1 1.566-1.779c.357-.041.721-.031 1.082-.043h.257a.712.712 0 0 0-.528-.937 2.686 2.686 0 0 0-1.4.171c-.1.033-.2.076-.328.125-.122-.3-.244-.583-.353-.874-.012-.032.04-.112.081-.136a3.37 3.37 0 0 1 2.6-.413 1.624 1.624 0 0 1 1.247 1.459 4.6 4.6 0 0 1 .037.673c0 .948 0 1.9.006 2.845 0 .2-.037.291-.256.266a2.447 2.447 0 0 0-.511 0c-.182.018-.281-.045-.314-.226a1.03 1.03 0 0 0-.067-.177m-.169-1.866h-.709a1.409 1.409 0 0 0-.343.046 1.319 1.319 0 0 0-.372.155.7.7 0 0 0-.215.793c.081.227.258.324.579.315a1.769 1.769 0 0 0 .922-.291c.057-.037.129-.105.132-.162.014-.277.006-.555.006-.858" class="cls-2" transform="translate(-314.481 573.669)"/>
    </g>
</svg>
