<svg xmlns="http://www.w3.org/2000/svg" width="53.025" height="12" viewBox="0 0 53.025 12">
    <defs>
        <clipPath id="clip-path">
            <path id="사각형_83" fill="none" d="M0 0H53.025V12H0z"/>
        </clipPath>
        <style>
            .cls-3{fill:#de0015}
        </style>
    </defs>
    <g id="payco">
        <g id="그룹_166" clip-path="url(#clip-path)">
            <path id="패스_121" d="M0 1.7A1.266 1.266 0 0 1 1.276.421H4.74c2.768 0 4.442 1.641 4.442 4.011v.033c0 2.685-2.089 4.077-4.691 4.077H2.553v2.4a1.267 1.267 0 0 1-1.277 1.277A1.267 1.267 0 0 1 0 10.946zm4.575 4.572A1.8 1.8 0 0 0 6.6 4.515v-.033c0-1.144-.8-1.757-2.072-1.757H2.553v3.547z" class="cls-3" transform="translate(0 -.322)"/>
            <path id="패스_122" d="M36.66 10.214l4.04-9.133A1.578 1.578 0 0 1 42.2.07h.149a1.556 1.556 0 0 1 1.475 1.011l4.044 9.133a1.242 1.242 0 0 1 .133.514 1.21 1.21 0 0 1-1.21 1.227 1.3 1.3 0 0 1-1.227-.878l-.779-1.823h-5.1l-.812 1.906a1.254 1.254 0 0 1-1.177.8 1.175 1.175 0 0 1-1.177-1.194 1.352 1.352 0 0 1 .149-.547M43.837 7l-1.608-3.831L40.621 7z" class="cls-3" transform="translate(-27.885 -.053)"/>
            <path id="패스_123" d="M83.429 7.594l-3.746-5.088a1.512 1.512 0 0 1-.315-.912A1.246 1.246 0 0 1 80.644.368a1.469 1.469 0 0 1 1.26.779l2.818 4.061 2.867-4.094a1.464 1.464 0 0 1 1.226-.763 1.183 1.183 0 0 1 1.243 1.243 1.585 1.585 0 0 1-.332.9l-3.745 5.05v3.348a1.276 1.276 0 1 1-2.552 0z" class="cls-3" transform="translate(-60.616 -.268)"/>
            <path id="패스_124" d="M124.944 6.033V6a5.9 5.9 0 0 1 6.05-6 6.144 6.144 0 0 1 3.878 1.177 1.276 1.276 0 0 1 .5 1.011 1.245 1.245 0 0 1-1.26 1.243 1.342 1.342 0 0 1-.763-.249 3.815 3.815 0 0 0-2.37-.829 3.438 3.438 0 0 0-3.365 3.613V6a3.446 3.446 0 0 0 3.365 3.646 3.725 3.725 0 0 0 2.52-.911 1.182 1.182 0 1 1 1.525 1.806 6.113 6.113 0 0 1-10.078-4.508" class="cls-3" transform="translate(-95.424)"/>
            <path id="패스_125" d="M172.239 6.033V6a6.169 6.169 0 0 1 12.331-.033V6a6.169 6.169 0 0 1-12.331.033m9.663 0V6a3.525 3.525 0 0 0-3.514-3.646 3.47 3.47 0 0 0-3.48 3.613V6a3.525 3.525 0 0 0 3.514 3.646 3.47 3.47 0 0 0 3.478-3.613" class="cls-3" transform="translate(-131.545)"/>
        </g>
    </g>
</svg>
