<svg xmlns="http://www.w3.org/2000/svg" width="53.239" height="17" viewBox="0 0 53.239 17">
    <defs>
        <style>
            .cls-1{fill:#dbebf8}.cls-3{fill:#006cbb}.cls-5{fill:#28292b}
        </style>
    </defs>
    <g id="paycoin">
        <path id="패스_126" d="M32.264 12.519a.724.724 0 0 1-.225.422l-.052.057a2.122 2.122 0 0 1-.31.224L28.6 15.05a5.038 5.038 0 0 1-1.874.582h-.018a4.188 4.188 0 0 1-1.946-.538l-1.3-.749-2.227-1.351a.725.725 0 0 1 .072-1.216l1.01-.561L25 9.666a3.814 3.814 0 0 1 1.652-.5h.018a3.336 3.336 0 0 1 1.5.4l3.414 2 .032.017a2.022 2.022 0 0 1 .321.217.725.725 0 0 1 .334.611v.008a.451.451 0 0 1-.009.1" class="cls-1" transform="translate(-18.739 -8.201)"/>
        <path id="패스_127" fill="#c4e0f5" d="M14.66 3.747l-3.974-2.295a3.873 3.873 0 0 0-3.862 0L2.849 3.747A3.873 3.873 0 0 0 .918 7.092v4.589a3.834 3.834 0 0 0 1.718 3.14c.049.035.1.068.151.1l2.4 1.607-.065-.215 1.7 1.007a3.86 3.86 0 0 0 1.892.515h.083a3.861 3.861 0 0 0 1.887-.515l3.975-2.295a3.873 3.873 0 0 0 1.931-3.345V7.092a3.873 3.873 0 0 0-1.93-3.345m-1.537 11.276l-2.823 1.63c-.032.019-.066.035-.1.053a.826.826 0 0 1-.766.035s-.268-.147-.293-.809v-1.847a3.086 3.086 0 0 1 .266-1.3 2.654 2.654 0 0 1 .865-.886l1.783-.991a.833.833 0 0 1 .774-.038s.265.146.292.8zm2.7-7.3v3.959a3.1 3.1 0 0 1-1.546 2.677l-.381.22v-3.52a2.611 2.611 0 0 0-1.3-2.255l-2.54-1.463a2.611 2.611 0 0 0-2.6 0L4.918 8.8a2.61 2.61 0 0 0-1.3 2.255v2.3a.385.385 0 1 0 .771 0v-2.3a1.832 1.832 0 0 1 .251-.924l.723.354.578.074.036-.249S5.3 10 5.383 9.665c0 0 .014-.228.394-.466l2.061-1.19a1.838 1.838 0 0 1 1.833 0l2.092 1.208c.352.232.367.448.367.448.058.243-.282.476-.472.585l-.052.029c-.042.023-.07.036-.07.036l-1.754.975a1.821 1.821 0 0 1-1.082.31 2.228 2.228 0 0 1-1-.31l-.53.171.278.23.5.146.6.143a.382.382 0 0 0-.125.133l-.23-.128-.95-.087a2.654 2.654 0 0 1 .864.886 3.1 3.1 0 0 1 .266 1.274v1.819c-.012.709-.294.864-.294.864-.335.222-.82-.062-.82-.062l-.049-.026-3.976-2.359a3.4 3.4 0 0 1-1.546-2.613V7.092a3.1 3.1 0 0 1 1.546-2.678L7.209 2.12a3.1 3.1 0 0 1 3.091 0l3.975 2.295a3.087 3.087 0 0 1 1.011.942l-.606.409-.64 1.044s.143-.07.341-.141l.6-.148H15.002l.112-.027a.6.6 0 0 1 .089-.007.615.615 0 0 1 .614.589v.648" transform="translate(-.822 -.838)"/>
        <path id="패스_128" d="M33.935 95.513c.028-.653.292-.8.292-.8a.833.833 0 0 1 .774.038l1.782.991a2.654 2.654 0 0 1 .865.886 3.087 3.087 0 0 1 .266 1.3v1.841c-.025.662-.293.809-.293.809a.826.826 0 0 1-.766-.035l-.1-.053-2.822-1.63z" class="cls-1" transform="translate(-30.367 -84.681)"/>
        <path id="패스_129" d="M115.171 87.8a.568.568 0 1 1 .568.568.568.568 0 0 1-.568-.568" class="cls-3" transform="translate(-103.063 -78.057)"/>
        <path id="패스_130" d="M27.165 94.073a3.086 3.086 0 0 1-1.307-1.279 5.1 5.1 0 0 1-.2-1.59v-1.848a1.674 1.674 0 0 1 1.059-1.556 1.856 1.856 0 0 1 1.639.258l2.43 1.376a.482.482 0 0 1-.476.838l-2.455-1.391a.931.931 0 0 0-.781-.088l-.02.01a.8.8 0 0 0-.43.732V91.2a3.585 3.585 0 0 0 .163 1.329 2.278 2.278 0 0 0 .871.761 8.314 8.314 0 0 0 2.516 1.087.516.516 0 0 1 .482.482.466.466 0 0 1-.482.482 7.617 7.617 0 0 1-3.008-1.271" class="cls-3" transform="translate(-22.962 -78.478)"/>
        <path id="패스_131" d="M116.474 107.2a.482.482 0 0 1-.482-.482V103.7a.482.482 0 0 1 .964 0v3.024a.482.482 0 0 1-.482.482" class="cls-3" transform="translate(-103.797 -92.364)"/>
        <path id="패스_132" fill="#e61437" d="M14.626 4.213c0-1.041-1.142-1.607-1.306-1.692L9.915.531h-.006A4.284 4.284 0 0 0 7.928 0a4.833 4.833 0 0 0-2.146.629L2.1 2.758A4.449 4.449 0 0 0 .435 4.376a3.514 3.514 0 0 0-.206.424A4.365 4.365 0 0 0 0 6.253v5.261a.482.482 0 1 0 .964 0V6.863c0-.041 0-.08.007-.118v-.536a.614.614 0 0 1 .876-.557l.028.014.1.049.645.322 2.929 1.694.014.008a5.1 5.1 0 0 0 2.45.654 6 6 0 0 0 2.319-.7l.014-.008 3.086-1.835c1.167-.656 1.2-1.429 1.193-1.633m-1.1.1a.724.724 0 0 1-.225.422l-.052.057a2.122 2.122 0 0 1-.31.224L9.862 6.847a5.038 5.038 0 0 1-1.874.582H7.97a4.188 4.188 0 0 1-1.946-.538l-1.3-.749L2.5 4.792a.725.725 0 0 1 .07-1.218l1.01-.561 2.684-1.55a3.814 3.814 0 0 1 1.652-.5h.018a3.336 3.336 0 0 1 1.5.4l3.414 2 .032.017a2.023 2.023 0 0 1 .321.217.725.725 0 0 1 .334.611v.008a.451.451 0 0 1-.009.1" transform="translate(0 .001)"/>
        <path id="패스_133" d="M197.9 47.446h2.1c1.549 0 2.654.529 2.654 2.1 0 1.521-1.105 2.22-2.616 2.22h-1.048V54.4h-1.1zm2.04 3.438c1.115 0 1.644-.425 1.644-1.341s-.584-1.219-1.684-1.219h-.907v2.56z" class="cls-5" transform="translate(-177.09 -42.458)"/>
        <path id="패스_134" d="M246.4 66.847c0-1.115.945-1.691 3.108-1.927-.009-.6-.227-1.134-.992-1.134a2.857 2.857 0 0 0-1.5.529l-.406-.737a3.979 3.979 0 0 1 2.1-.68c1.294 0 1.889.822 1.889 2.2v3.126h-.888l-.095-.6h-.028a2.583 2.583 0 0 1-1.653.718 1.435 1.435 0 0 1-1.53-1.5m3.108.038v-1.27c-1.54.189-2.059.576-2.059 1.162 0 .51.349.718.812.718a1.831 1.831 0 0 0 1.247-.6" class="cls-5" transform="translate(-220.5 -56.286)"/>
        <path id="패스_135" d="M295.478 69.664c-.406 1.115-.954 1.861-2.05 1.861a1.847 1.847 0 0 1-.652-.1l.208-.85a1.406 1.406 0 0 0 .378.076c.567 0 .9-.415 1.086-.973l.1-.359-2.059-5.157h1.115l.963 2.673c.151.463.312.982.472 1.464h.047l.406-1.464.831-2.673h1.058z" class="cls-5" transform="translate(-261.742 -57.412)"/>
        <path id="패스_136" d="M342.173 65.638a2.553 2.553 0 0 1 2.569-2.739 2.231 2.231 0 0 1 1.521.595l-.538.709a1.361 1.361 0 0 0-.935-.406c-.869 0-1.492.737-1.492 1.842s.6 1.823 1.464 1.823a1.779 1.779 0 0 0 1.133-.472l.444.718a2.531 2.531 0 0 1-1.681.642 2.456 2.456 0 0 1-2.484-2.711" class="cls-5" transform="translate(-306.199 -56.286)"/>
        <path id="패스_137" d="M384.487 65.638a2.459 2.459 0 1 1 2.447 2.711 2.51 2.51 0 0 1-2.447-2.711m3.778 0c0-1.105-.51-1.842-1.332-1.842s-1.322.737-1.322 1.842.51 1.823 1.322 1.823 1.332-.727 1.332-1.823" class="cls-5" transform="translate(-344.065 -56.286)"/>
        <path id="패스_138" d="M439.918 43.326a.638.638 0 0 1 .69-.642.644.644 0 1 1-.69.642m.151 1.615h1.077v5.195h-1.077z" class="cls-5" transform="translate(-393.668 -38.197)"/>
        <path id="패스_139" d="M465.342 63.031h.888l.085.718h.028a2.476 2.476 0 0 1 1.719-.85c1.105 0 1.6.737 1.6 2.059v3.268h-1.086V65.09c0-.9-.265-1.256-.879-1.256a1.774 1.774 0 0 0-1.275.708v3.684h-1.077z" class="cls-5" transform="translate(-416.419 -56.286)"/>
    </g>
</svg>
